<svg xmlns="http://www.w3.org/2000/svg" width="1500" height="1000" viewBox="0 0 1500 1000">
<defs><linearGradient id="g" x1="0" y1="0" x2="0" y2="1">
<stop offset="0%" stop-color="#0b2a24"/>
<stop offset="50%" stop-color="#154237"/>
<stop offset="100%" stop-color="#2c6b4f"/>
</linearGradient></defs>
<rect width="1500" height="1000" fill="url(#g)"/>
<circle cx="222" cy="662" r="2.3" fill="#7fd6a0" opacity="0.26"/>
<circle cx="912" cy="458" r="4.3" fill="#7fd6a0" opacity="0.22"/>
<circle cx="65" cy="587" r="4.3" fill="#7fd6a0" opacity="0.21"/>
<circle cx="1319" cy="767" r="3.2" fill="#7fd6a0" opacity="0.12"/>
<circle cx="192" cy="833" r="4.6" fill="#7fd6a0" opacity="0.23"/>
<circle cx="663" cy="561" r="2.5" fill="#7fd6a0" opacity="0.21"/>
<circle cx="218" cy="667" r="4.3" fill="#7fd6a0" opacity="0.25"/>
<circle cx="370" cy="201" r="3.0" fill="#7fd6a0" opacity="0.26"/>
<circle cx="765" cy="778" r="3.4" fill="#7fd6a0" opacity="0.17"/>
<circle cx="1361" cy="267" r="2.4" fill="#7fd6a0" opacity="0.23"/>
<circle cx="947" cy="501" r="4.0" fill="#7fd6a0" opacity="0.18"/>
<circle cx="1003" cy="902" r="5.2" fill="#7fd6a0" opacity="0.24"/>
<circle cx="705" cy="954" r="3.5" fill="#7fd6a0" opacity="0.24"/>
<circle cx="1303" cy="721" r="3.3" fill="#7fd6a0" opacity="0.27"/>
<circle cx="900" cy="925" r="4.3" fill="#7fd6a0" opacity="0.21"/>
<circle cx="1461" cy="584" r="3.3" fill="#7fd6a0" opacity="0.33"/>
<circle cx="1416" cy="271" r="1.8" fill="#7fd6a0" opacity="0.31"/>
<circle cx="1324" cy="458" r="2.6" fill="#7fd6a0" opacity="0.26"/>
<circle cx="1410" cy="308" r="3.5" fill="#7fd6a0" opacity="0.25"/>
<circle cx="331" cy="485" r="2.1" fill="#7fd6a0" opacity="0.19"/>
<circle cx="345" cy="191" r="3.3" fill="#7fd6a0" opacity="0.10"/>
<circle cx="178" cy="253" r="3.4" fill="#7fd6a0" opacity="0.15"/>
<circle cx="1092" cy="485" r="2.6" fill="#7fd6a0" opacity="0.11"/>
<circle cx="446" cy="774" r="2.4" fill="#7fd6a0" opacity="0.19"/>
<circle cx="1210" cy="850" r="3.6" fill="#7fd6a0" opacity="0.30"/>
<circle cx="964" cy="320" r="1.9" fill="#7fd6a0" opacity="0.10"/>
<circle cx="1185" cy="463" r="5.3" fill="#7fd6a0" opacity="0.34"/>
<circle cx="1379" cy="533" r="1.5" fill="#7fd6a0" opacity="0.13"/>
<circle cx="328" cy="691" r="4.7" fill="#7fd6a0" opacity="0.33"/>
<circle cx="1058" cy="964" r="4.4" fill="#7fd6a0" opacity="0.19"/>
<circle cx="1255" cy="361" r="5.0" fill="#7fd6a0" opacity="0.27"/>
<circle cx="1300" cy="173" r="2.3" fill="#7fd6a0" opacity="0.33"/>
<circle cx="213" cy="517" r="4.2" fill="#7fd6a0" opacity="0.19"/>
<circle cx="1319" cy="961" r="3.0" fill="#7fd6a0" opacity="0.09"/>
<circle cx="1372" cy="519" r="2.6" fill="#7fd6a0" opacity="0.09"/>
<circle cx="14" cy="633" r="2.8" fill="#7fd6a0" opacity="0.22"/>
<circle cx="1387" cy="546" r="5.8" fill="#7fd6a0" opacity="0.07"/>
<circle cx="1137" cy="784" r="5.8" fill="#7fd6a0" opacity="0.06"/>
<circle cx="760" cy="610" r="4.2" fill="#7fd6a0" opacity="0.19"/>
<circle cx="409" cy="914" r="5.5" fill="#7fd6a0" opacity="0.26"/>
<circle cx="1439" cy="607" r="1.9" fill="#7fd6a0" opacity="0.26"/>
<circle cx="157" cy="781" r="4.4" fill="#7fd6a0" opacity="0.11"/>
<circle cx="229" cy="179" r="2.3" fill="#7fd6a0" opacity="0.34"/>
<circle cx="342" cy="898" r="2.1" fill="#7fd6a0" opacity="0.15"/>
<circle cx="708" cy="435" r="5.8" fill="#7fd6a0" opacity="0.12"/>
<circle cx="725" cy="301" r="2.0" fill="#7fd6a0" opacity="0.26"/>
<circle cx="509" cy="549" r="4.6" fill="#7fd6a0" opacity="0.08"/>
<circle cx="82" cy="725" r="6.0" fill="#7fd6a0" opacity="0.06"/>
<circle cx="678" cy="995" r="5.2" fill="#7fd6a0" opacity="0.35"/>
<circle cx="794" cy="975" r="1.8" fill="#7fd6a0" opacity="0.19"/>
<circle cx="1272" cy="464" r="3.5" fill="#7fd6a0" opacity="0.18"/>
<circle cx="570" cy="835" r="5.9" fill="#7fd6a0" opacity="0.12"/>
<circle cx="484" cy="827" r="4.8" fill="#7fd6a0" opacity="0.29"/>
<circle cx="1023" cy="925" r="5.3" fill="#7fd6a0" opacity="0.24"/>
<circle cx="425" cy="195" r="5.4" fill="#7fd6a0" opacity="0.31"/>
<circle cx="1337" cy="353" r="4.8" fill="#7fd6a0" opacity="0.33"/>
<circle cx="310" cy="141" r="2.3" fill="#7fd6a0" opacity="0.12"/>
<circle cx="1020" cy="843" r="5.2" fill="#7fd6a0" opacity="0.26"/>
<circle cx="1468" cy="976" r="3.5" fill="#7fd6a0" opacity="0.33"/>
<circle cx="1079" cy="336" r="4.1" fill="#7fd6a0" opacity="0.10"/>
<circle cx="600" cy="835" r="1.5" fill="#7fd6a0" opacity="0.21"/>
<circle cx="654" cy="369" r="1.8" fill="#7fd6a0" opacity="0.21"/>
<circle cx="500" cy="206" r="3.3" fill="#7fd6a0" opacity="0.25"/>
<circle cx="119" cy="811" r="1.9" fill="#7fd6a0" opacity="0.19"/>
<circle cx="550" cy="874" r="5.5" fill="#7fd6a0" opacity="0.27"/>
<circle cx="441" cy="406" r="5.2" fill="#7fd6a0" opacity="0.20"/>
<circle cx="953" cy="757" r="2.4" fill="#7fd6a0" opacity="0.17"/>
<circle cx="1432" cy="412" r="5.3" fill="#7fd6a0" opacity="0.10"/>
<circle cx="21" cy="562" r="2.8" fill="#7fd6a0" opacity="0.23"/>
<circle cx="1155" cy="154" r="3.7" fill="#7fd6a0" opacity="0.16"/>
<circle cx="1359" cy="863" r="5.5" fill="#7fd6a0" opacity="0.27"/>
<circle cx="520" cy="665" r="3.9" fill="#7fd6a0" opacity="0.16"/>
<circle cx="435" cy="691" r="5.5" fill="#7fd6a0" opacity="0.12"/>
<circle cx="534" cy="259" r="3.1" fill="#7fd6a0" opacity="0.17"/>
<circle cx="140" cy="688" r="3.0" fill="#7fd6a0" opacity="0.29"/>
<circle cx="364" cy="766" r="5.9" fill="#7fd6a0" opacity="0.10"/>
<circle cx="555" cy="975" r="3.3" fill="#7fd6a0" opacity="0.15"/>
<circle cx="230" cy="850" r="3.0" fill="#7fd6a0" opacity="0.31"/>
<circle cx="837" cy="278" r="6.0" fill="#7fd6a0" opacity="0.32"/>
<circle cx="1123" cy="649" r="4.9" fill="#7fd6a0" opacity="0.33"/>
<circle cx="296" cy="332" r="4.9" fill="#7fd6a0" opacity="0.18"/>
<circle cx="1478" cy="854" r="3.8" fill="#7fd6a0" opacity="0.10"/>
<circle cx="918" cy="649" r="4.1" fill="#7fd6a0" opacity="0.28"/>
<circle cx="716" cy="906" r="4.2" fill="#7fd6a0" opacity="0.10"/>
<circle cx="1231" cy="269" r="5.6" fill="#7fd6a0" opacity="0.33"/>
<circle cx="293" cy="297" r="4.7" fill="#7fd6a0" opacity="0.19"/>
<circle cx="562" cy="781" r="3.0" fill="#7fd6a0" opacity="0.09"/>
<circle cx="827" cy="892" r="5.8" fill="#7fd6a0" opacity="0.08"/>
<circle cx="1119" cy="405" r="5.9" fill="#7fd6a0" opacity="0.17"/>
<circle cx="154" cy="411" r="3.8" fill="#7fd6a0" opacity="0.10"/>
<circle cx="1155" cy="410" r="4.8" fill="#7fd6a0" opacity="0.12"/>
<circle cx="737" cy="700" r="2.4" fill="#7fd6a0" opacity="0.14"/>
<circle cx="1259" cy="467" r="3.1" fill="#7fd6a0" opacity="0.24"/>
<circle cx="1037" cy="881" r="4.0" fill="#7fd6a0" opacity="0.31"/>
<circle cx="1339" cy="936" r="5.6" fill="#7fd6a0" opacity="0.26"/>
<circle cx="1044" cy="462" r="2.0" fill="#7fd6a0" opacity="0.33"/>
<circle cx="621" cy="417" r="4.0" fill="#7fd6a0" opacity="0.28"/>
<circle cx="1245" cy="220" r="5.0" fill="#7fd6a0" opacity="0.33"/>
<circle cx="1467" cy="949" r="4.1" fill="#7fd6a0" opacity="0.32"/>
<circle cx="886" cy="867" r="6.0" fill="#7fd6a0" opacity="0.16"/>
<circle cx="185" cy="780" r="5.7" fill="#7fd6a0" opacity="0.32"/>
<circle cx="694" cy="515" r="2.1" fill="#7fd6a0" opacity="0.31"/>
<circle cx="408" cy="227" r="2.0" fill="#7fd6a0" opacity="0.33"/>
<circle cx="624" cy="818" r="1.8" fill="#7fd6a0" opacity="0.19"/>
<circle cx="1119" cy="799" r="2.4" fill="#7fd6a0" opacity="0.19"/>
<circle cx="1219" cy="924" r="1.9" fill="#7fd6a0" opacity="0.23"/>
<circle cx="1335" cy="666" r="5.0" fill="#7fd6a0" opacity="0.14"/>
<circle cx="739" cy="132" r="5.1" fill="#7fd6a0" opacity="0.22"/>
<circle cx="271" cy="948" r="2.5" fill="#7fd6a0" opacity="0.06"/>
<circle cx="1087" cy="190" r="4.5" fill="#7fd6a0" opacity="0.09"/>
<circle cx="34" cy="768" r="4.3" fill="#7fd6a0" opacity="0.25"/>
<circle cx="1063" cy="751" r="2.3" fill="#7fd6a0" opacity="0.18"/>
<circle cx="888" cy="882" r="4.4" fill="#7fd6a0" opacity="0.20"/>
<circle cx="1229" cy="863" r="2.6" fill="#7fd6a0" opacity="0.11"/>
<circle cx="8" cy="887" r="2.5" fill="#7fd6a0" opacity="0.22"/>
<circle cx="789" cy="699" r="5.7" fill="#7fd6a0" opacity="0.25"/>
<circle cx="258" cy="499" r="2.3" fill="#7fd6a0" opacity="0.16"/>
<circle cx="1111" cy="694" r="4.3" fill="#7fd6a0" opacity="0.31"/>
<circle cx="1497" cy="342" r="4.7" fill="#7fd6a0" opacity="0.24"/>
<circle cx="41" cy="993" r="3.3" fill="#7fd6a0" opacity="0.25"/>
<circle cx="344" cy="493" r="2.0" fill="#7fd6a0" opacity="0.34"/>
<circle cx="63" cy="184" r="4.8" fill="#7fd6a0" opacity="0.22"/>
<circle cx="484" cy="948" r="4.6" fill="#7fd6a0" opacity="0.18"/>
<circle cx="1068" cy="944" r="5.4" fill="#7fd6a0" opacity="0.16"/>
<circle cx="1162" cy="314" r="3.2" fill="#7fd6a0" opacity="0.35"/>
<circle cx="1103" cy="473" r="3.9" fill="#7fd6a0" opacity="0.18"/>
<circle cx="1061" cy="580" r="3.5" fill="#7fd6a0" opacity="0.18"/>
<circle cx="1320" cy="833" r="2.6" fill="#7fd6a0" opacity="0.17"/>
<circle cx="1351" cy="762" r="4.2" fill="#7fd6a0" opacity="0.24"/>
<circle cx="302" cy="620" r="4.9" fill="#7fd6a0" opacity="0.18"/>
<circle cx="614" cy="499" r="4.2" fill="#7fd6a0" opacity="0.12"/>
<circle cx="1232" cy="177" r="5.0" fill="#7fd6a0" opacity="0.21"/>
<circle cx="376" cy="341" r="2.7" fill="#7fd6a0" opacity="0.10"/>
<circle cx="1489" cy="365" r="1.9" fill="#7fd6a0" opacity="0.25"/>
<circle cx="1464" cy="373" r="2.5" fill="#7fd6a0" opacity="0.23"/>
<circle cx="489" cy="524" r="4.1" fill="#7fd6a0" opacity="0.35"/>
<circle cx="566" cy="439" r="4.7" fill="#7fd6a0" opacity="0.22"/>
<circle cx="1315" cy="502" r="4.4" fill="#7fd6a0" opacity="0.20"/>
<circle cx="905" cy="551" r="2.2" fill="#7fd6a0" opacity="0.09"/>
<circle cx="596" cy="1000" r="3.8" fill="#7fd6a0" opacity="0.20"/>
<circle cx="672" cy="803" r="3.1" fill="#7fd6a0" opacity="0.17"/>
<circle cx="504" cy="623" r="3.7" fill="#7fd6a0" opacity="0.23"/>
<circle cx="1404" cy="421" r="4.3" fill="#7fd6a0" opacity="0.35"/>
<circle cx="1113" cy="862" r="5.2" fill="#7fd6a0" opacity="0.11"/>
<circle cx="950" cy="424" r="3.1" fill="#7fd6a0" opacity="0.09"/>
<circle cx="1172" cy="932" r="5.4" fill="#7fd6a0" opacity="0.18"/>
<circle cx="1378" cy="828" r="4.3" fill="#7fd6a0" opacity="0.29"/>
<circle cx="1166" cy="130" r="4.3" fill="#7fd6a0" opacity="0.24"/>
<circle cx="539" cy="832" r="4.8" fill="#7fd6a0" opacity="0.08"/>
<circle cx="581" cy="128" r="3.2" fill="#7fd6a0" opacity="0.08"/>
<circle cx="3" cy="382" r="4.7" fill="#7fd6a0" opacity="0.10"/>
<circle cx="1454" cy="284" r="5.2" fill="#7fd6a0" opacity="0.13"/>
<circle cx="1314" cy="566" r="5.3" fill="#7fd6a0" opacity="0.18"/>
<circle cx="420" cy="899" r="1.6" fill="#7fd6a0" opacity="0.09"/>
<circle cx="209" cy="613" r="4.9" fill="#7fd6a0" opacity="0.12"/>
<circle cx="872" cy="870" r="1.5" fill="#7fd6a0" opacity="0.28"/>
<circle cx="206" cy="144" r="3.7" fill="#7fd6a0" opacity="0.17"/>
<circle cx="592" cy="680" r="1.6" fill="#7fd6a0" opacity="0.23"/>
<circle cx="219" cy="950" r="3.6" fill="#7fd6a0" opacity="0.11"/>
<circle cx="787" cy="483" r="1.8" fill="#7fd6a0" opacity="0.28"/>
<circle cx="645" cy="862" r="4.9" fill="#7fd6a0" opacity="0.30"/>
<circle cx="1429" cy="380" r="4.0" fill="#7fd6a0" opacity="0.22"/>
<circle cx="927" cy="776" r="4.9" fill="#7fd6a0" opacity="0.25"/>
<circle cx="905" cy="597" r="2.1" fill="#7fd6a0" opacity="0.13"/>
<circle cx="179" cy="645" r="4.2" fill="#7fd6a0" opacity="0.12"/>
<circle cx="567" cy="882" r="2.2" fill="#7fd6a0" opacity="0.21"/>
<circle cx="769" cy="534" r="2.8" fill="#7fd6a0" opacity="0.34"/>
<circle cx="842" cy="562" r="1.8" fill="#7fd6a0" opacity="0.06"/>
<circle cx="704" cy="353" r="4.6" fill="#7fd6a0" opacity="0.26"/>
<circle cx="91" cy="453" r="2.9" fill="#7fd6a0" opacity="0.24"/>
<circle cx="850" cy="878" r="1.7" fill="#7fd6a0" opacity="0.19"/>
<circle cx="1091" cy="265" r="1.7" fill="#7fd6a0" opacity="0.18"/>
<circle cx="351" cy="160" r="5.3" fill="#7fd6a0" opacity="0.27"/>
<circle cx="1006" cy="888" r="4.8" fill="#7fd6a0" opacity="0.18"/>
<circle cx="1147" cy="939" r="5.8" fill="#7fd6a0" opacity="0.31"/>
<circle cx="1186" cy="972" r="5.7" fill="#7fd6a0" opacity="0.24"/>
<circle cx="630" cy="729" r="5.9" fill="#7fd6a0" opacity="0.08"/>
<circle cx="650" cy="242" r="2.0" fill="#7fd6a0" opacity="0.22"/>
<circle cx="280" cy="211" r="4.1" fill="#7fd6a0" opacity="0.22"/>
<circle cx="743" cy="142" r="2.1" fill="#7fd6a0" opacity="0.21"/>
<circle cx="95" cy="216" r="3.0" fill="#7fd6a0" opacity="0.33"/>
<circle cx="1148" cy="901" r="5.0" fill="#7fd6a0" opacity="0.08"/>
<circle cx="1084" cy="710" r="5.7" fill="#7fd6a0" opacity="0.07"/>
<circle cx="260" cy="233" r="3.4" fill="#7fd6a0" opacity="0.15"/>
<circle cx="409" cy="802" r="5.7" fill="#7fd6a0" opacity="0.33"/>
<circle cx="116" cy="266" r="3.5" fill="#7fd6a0" opacity="0.28"/>
<circle cx="1143" cy="858" r="2.1" fill="#7fd6a0" opacity="0.22"/>
<circle cx="78" cy="725" r="5.2" fill="#7fd6a0" opacity="0.14"/>
<circle cx="570" cy="184" r="5.4" fill="#7fd6a0" opacity="0.15"/>
<circle cx="419" cy="456" r="2.2" fill="#7fd6a0" opacity="0.35"/>
<circle cx="1404" cy="599" r="3.3" fill="#7fd6a0" opacity="0.20"/>
<circle cx="1404" cy="150" r="2.5" fill="#7fd6a0" opacity="0.25"/>
<circle cx="469" cy="558" r="1.9" fill="#7fd6a0" opacity="0.18"/>
<circle cx="1398" cy="733" r="4.2" fill="#7fd6a0" opacity="0.31"/>
<circle cx="264" cy="742" r="5.8" fill="#7fd6a0" opacity="0.16"/>
<circle cx="23" cy="654" r="5.6" fill="#7fd6a0" opacity="0.08"/>
<circle cx="412" cy="740" r="3.9" fill="#7fd6a0" opacity="0.35"/>
<circle cx="825" cy="440" r="3.1" fill="#7fd6a0" opacity="0.20"/>
<circle cx="1173" cy="789" r="3.5" fill="#7fd6a0" opacity="0.16"/>
<circle cx="920" cy="283" r="3.7" fill="#7fd6a0" opacity="0.15"/>
<circle cx="27" cy="719" r="1.9" fill="#7fd6a0" opacity="0.14"/>
<circle cx="902" cy="882" r="4.4" fill="#7fd6a0" opacity="0.34"/>
<circle cx="33" cy="827" r="4.8" fill="#7fd6a0" opacity="0.26"/>
<circle cx="1440" cy="180" r="1.9" fill="#7fd6a0" opacity="0.34"/>
<circle cx="1333" cy="221" r="3.6" fill="#7fd6a0" opacity="0.31"/>
<circle cx="888" cy="147" r="2.5" fill="#7fd6a0" opacity="0.30"/>
<circle cx="234" cy="370" r="5.2" fill="#7fd6a0" opacity="0.11"/>
<circle cx="879" cy="270" r="2.3" fill="#7fd6a0" opacity="0.22"/>
<circle cx="1172" cy="463" r="2.6" fill="#7fd6a0" opacity="0.26"/>
<circle cx="1084" cy="133" r="4.5" fill="#7fd6a0" opacity="0.21"/>
<circle cx="1480" cy="650" r="4.3" fill="#7fd6a0" opacity="0.07"/>
<circle cx="720" cy="164" r="2.3" fill="#7fd6a0" opacity="0.20"/>
<circle cx="1283" cy="971" r="5.3" fill="#7fd6a0" opacity="0.20"/>
<circle cx="673" cy="732" r="3.1" fill="#7fd6a0" opacity="0.06"/>
<circle cx="1121" cy="953" r="5.5" fill="#7fd6a0" opacity="0.24"/>
<circle cx="1200" cy="295" r="2.6" fill="#7fd6a0" opacity="0.31"/>
<circle cx="773" cy="320" r="4.4" fill="#7fd6a0" opacity="0.27"/>
<circle cx="1327" cy="229" r="2.9" fill="#7fd6a0" opacity="0.20"/>
<circle cx="1261" cy="989" r="2.0" fill="#7fd6a0" opacity="0.15"/>
<circle cx="624" cy="939" r="4.4" fill="#7fd6a0" opacity="0.14"/>
<circle cx="868" cy="290" r="5.4" fill="#7fd6a0" opacity="0.18"/>
<circle cx="845" cy="822" r="3.8" fill="#7fd6a0" opacity="0.07"/>
<circle cx="525" cy="129" r="3.4" fill="#7fd6a0" opacity="0.35"/>
<circle cx="1147" cy="978" r="2.2" fill="#7fd6a0" opacity="0.26"/>
<circle cx="1173" cy="511" r="5.2" fill="#7fd6a0" opacity="0.08"/>
<circle cx="1355" cy="964" r="2.4" fill="#7fd6a0" opacity="0.07"/>
<circle cx="1303" cy="633" r="5.9" fill="#7fd6a0" opacity="0.22"/>
<circle cx="346" cy="356" r="4.5" fill="#7fd6a0" opacity="0.15"/>
<circle cx="1472" cy="803" r="4.1" fill="#7fd6a0" opacity="0.31"/>
<circle cx="1200" cy="458" r="4.2" fill="#7fd6a0" opacity="0.18"/>
<circle cx="66" cy="221" r="2.7" fill="#7fd6a0" opacity="0.06"/>
<circle cx="1305" cy="564" r="2.6" fill="#7fd6a0" opacity="0.08"/>
<circle cx="1019" cy="492" r="5.4" fill="#7fd6a0" opacity="0.24"/>
<circle cx="147" cy="973" r="5.5" fill="#7fd6a0" opacity="0.16"/>
<circle cx="1194" cy="677" r="2.0" fill="#7fd6a0" opacity="0.12"/>
<circle cx="480" cy="617" r="3.8" fill="#7fd6a0" opacity="0.22"/>
<circle cx="45" cy="441" r="2.1" fill="#7fd6a0" opacity="0.16"/>
<circle cx="1494" cy="208" r="1.6" fill="#7fd6a0" opacity="0.17"/>
<circle cx="571" cy="194" r="5.4" fill="#7fd6a0" opacity="0.29"/>
<circle cx="1239" cy="688" r="3.8" fill="#7fd6a0" opacity="0.22"/>
<circle cx="270" cy="141" r="5.8" fill="#7fd6a0" opacity="0.32"/>
<circle cx="418" cy="584" r="2.0" fill="#7fd6a0" opacity="0.30"/>
<circle cx="1353" cy="982" r="1.9" fill="#7fd6a0" opacity="0.34"/>
<circle cx="155" cy="785" r="5.9" fill="#7fd6a0" opacity="0.10"/>
<circle cx="893" cy="830" r="5.1" fill="#7fd6a0" opacity="0.30"/>
<circle cx="1002" cy="567" r="3.9" fill="#7fd6a0" opacity="0.28"/>
<circle cx="1124" cy="706" r="5.4" fill="#7fd6a0" opacity="0.13"/>
<circle cx="502" cy="472" r="2.7" fill="#7fd6a0" opacity="0.26"/>
<circle cx="22" cy="950" r="2.2" fill="#7fd6a0" opacity="0.25"/>
<circle cx="1116" cy="363" r="1.7" fill="#7fd6a0" opacity="0.35"/>
<circle cx="1370" cy="560" r="2.6" fill="#7fd6a0" opacity="0.20"/>
<circle cx="918" cy="227" r="4.3" fill="#7fd6a0" opacity="0.26"/>
<circle cx="325" cy="429" r="3.2" fill="#7fd6a0" opacity="0.14"/>
<circle cx="655" cy="233" r="3.0" fill="#7fd6a0" opacity="0.31"/>
<circle cx="1007" cy="518" r="2.1" fill="#7fd6a0" opacity="0.15"/>
<circle cx="1074" cy="539" r="4.9" fill="#7fd6a0" opacity="0.26"/>
<circle cx="748" cy="731" r="3.8" fill="#7fd6a0" opacity="0.15"/>
<circle cx="1482" cy="766" r="3.2" fill="#7fd6a0" opacity="0.05"/>
<circle cx="698" cy="414" r="5.4" fill="#7fd6a0" opacity="0.34"/>
<circle cx="1071" cy="147" r="4.6" fill="#7fd6a0" opacity="0.11"/>
<circle cx="842" cy="843" r="1.8" fill="#7fd6a0" opacity="0.34"/>
<circle cx="1251" cy="491" r="3.9" fill="#7fd6a0" opacity="0.15"/>
<circle cx="1255" cy="969" r="3.6" fill="#7fd6a0" opacity="0.29"/>
<circle cx="156" cy="243" r="5.7" fill="#7fd6a0" opacity="0.10"/>
<circle cx="1105" cy="764" r="1.8" fill="#7fd6a0" opacity="0.30"/>
<circle cx="840" cy="561" r="4.7" fill="#7fd6a0" opacity="0.17"/>
<circle cx="1302" cy="622" r="5.0" fill="#7fd6a0" opacity="0.18"/>
<circle cx="628" cy="419" r="2.3" fill="#7fd6a0" opacity="0.31"/>
<circle cx="884" cy="937" r="4.4" fill="#7fd6a0" opacity="0.28"/>
<circle cx="860" cy="560" r="5.3" fill="#7fd6a0" opacity="0.09"/>
<circle cx="929" cy="128" r="2.1" fill="#7fd6a0" opacity="0.34"/>
<circle cx="35" cy="831" r="6.0" fill="#7fd6a0" opacity="0.26"/>
<circle cx="1466" cy="254" r="4.7" fill="#7fd6a0" opacity="0.23"/>
<circle cx="758" cy="186" r="1.8" fill="#7fd6a0" opacity="0.29"/>
<circle cx="257" cy="723" r="2.2" fill="#7fd6a0" opacity="0.24"/>
<circle cx="84" cy="974" r="4.6" fill="#7fd6a0" opacity="0.12"/>
<circle cx="1454" cy="260" r="3.7" fill="#7fd6a0" opacity="0.23"/>
<circle cx="218" cy="728" r="2.7" fill="#7fd6a0" opacity="0.29"/>
<circle cx="1457" cy="939" r="2.0" fill="#7fd6a0" opacity="0.20"/>
<circle cx="1036" cy="151" r="1.6" fill="#7fd6a0" opacity="0.28"/>
<circle cx="1054" cy="291" r="4.8" fill="#7fd6a0" opacity="0.29"/>
<circle cx="430" cy="607" r="4.9" fill="#7fd6a0" opacity="0.07"/>
<circle cx="1073" cy="968" r="5.9" fill="#7fd6a0" opacity="0.35"/>
<circle cx="1217" cy="945" r="3.2" fill="#7fd6a0" opacity="0.14"/>
<circle cx="1172" cy="325" r="2.7" fill="#7fd6a0" opacity="0.23"/>
<circle cx="601" cy="936" r="2.1" fill="#7fd6a0" opacity="0.16"/>
<circle cx="1330" cy="386" r="4.8" fill="#7fd6a0" opacity="0.21"/>
<circle cx="1421" cy="250" r="3.8" fill="#7fd6a0" opacity="0.15"/>
<circle cx="1070" cy="950" r="4.6" fill="#7fd6a0" opacity="0.34"/>
<circle cx="1267" cy="527" r="2.6" fill="#7fd6a0" opacity="0.07"/>
<circle cx="565" cy="417" r="4.2" fill="#7fd6a0" opacity="0.34"/>
<circle cx="787" cy="293" r="5.3" fill="#7fd6a0" opacity="0.16"/>
<circle cx="1010" cy="709" r="4.4" fill="#7fd6a0" opacity="0.08"/>
<circle cx="149" cy="767" r="3.6" fill="#7fd6a0" opacity="0.25"/>
<circle cx="1348" cy="409" r="3.2" fill="#7fd6a0" opacity="0.27"/>
<circle cx="271" cy="572" r="1.9" fill="#7fd6a0" opacity="0.28"/>
<circle cx="408" cy="310" r="3.7" fill="#7fd6a0" opacity="0.28"/>
<circle cx="953" cy="483" r="2.0" fill="#7fd6a0" opacity="0.18"/>
<circle cx="13" cy="536" r="2.0" fill="#7fd6a0" opacity="0.25"/>
<circle cx="1307" cy="437" r="5.9" fill="#7fd6a0" opacity="0.23"/>
<circle cx="671" cy="605" r="5.1" fill="#7fd6a0" opacity="0.27"/>
<circle cx="1362" cy="937" r="2.4" fill="#7fd6a0" opacity="0.32"/>
<circle cx="1361" cy="439" r="4.5" fill="#7fd6a0" opacity="0.18"/>
<circle cx="524" cy="518" r="5.9" fill="#7fd6a0" opacity="0.16"/>
<circle cx="65" cy="835" r="2.5" fill="#7fd6a0" opacity="0.06"/>
<circle cx="319" cy="300" r="4.1" fill="#7fd6a0" opacity="0.08"/>
<circle cx="1337" cy="747" r="5.8" fill="#7fd6a0" opacity="0.32"/>
<circle cx="1314" cy="952" r="3.0" fill="#7fd6a0" opacity="0.31"/>
<circle cx="605" cy="939" r="1.7" fill="#7fd6a0" opacity="0.24"/>
<circle cx="732" cy="876" r="2.4" fill="#7fd6a0" opacity="0.26"/>
<circle cx="505" cy="989" r="3.8" fill="#7fd6a0" opacity="0.17"/>
<circle cx="1281" cy="700" r="4.4" fill="#7fd6a0" opacity="0.25"/>
<circle cx="860" cy="768" r="4.9" fill="#7fd6a0" opacity="0.26"/>
<circle cx="42" cy="703" r="6.0" fill="#7fd6a0" opacity="0.26"/>
<circle cx="853" cy="225" r="3.8" fill="#7fd6a0" opacity="0.18"/>
<circle cx="260" cy="386" r="2.8" fill="#7fd6a0" opacity="0.06"/>
<circle cx="724" cy="824" r="4.3" fill="#7fd6a0" opacity="0.33"/>
<circle cx="1372" cy="681" r="2.3" fill="#7fd6a0" opacity="0.06"/>
<circle cx="884" cy="191" r="4.5" fill="#7fd6a0" opacity="0.31"/>
<circle cx="521" cy="348" r="2.4" fill="#7fd6a0" opacity="0.34"/>
<circle cx="652" cy="425" r="4.1" fill="#7fd6a0" opacity="0.25"/>
<circle cx="642" cy="651" r="2.1" fill="#7fd6a0" opacity="0.10"/>
<circle cx="508" cy="652" r="3.7" fill="#7fd6a0" opacity="0.14"/>
<circle cx="520" cy="157" r="4.6" fill="#7fd6a0" opacity="0.31"/>
<circle cx="1084" cy="781" r="2.7" fill="#7fd6a0" opacity="0.15"/>
<circle cx="669" cy="256" r="1.8" fill="#7fd6a0" opacity="0.30"/>
<circle cx="773" cy="867" r="4.8" fill="#7fd6a0" opacity="0.17"/>
<circle cx="256" cy="348" r="3.8" fill="#7fd6a0" opacity="0.25"/>
<circle cx="463" cy="434" r="2.6" fill="#7fd6a0" opacity="0.15"/>
<circle cx="527" cy="551" r="1.7" fill="#7fd6a0" opacity="0.29"/>
<circle cx="1170" cy="648" r="4.9" fill="#7fd6a0" opacity="0.22"/>
<circle cx="746" cy="909" r="5.7" fill="#7fd6a0" opacity="0.33"/>
<circle cx="1475" cy="407" r="3.1" fill="#7fd6a0" opacity="0.28"/>
<circle cx="540" cy="507" r="3.3" fill="#7fd6a0" opacity="0.29"/>
<circle cx="382" cy="133" r="5.6" fill="#7fd6a0" opacity="0.23"/>
<circle cx="1383" cy="349" r="1.6" fill="#7fd6a0" opacity="0.06"/>
<circle cx="724" cy="409" r="2.2" fill="#7fd6a0" opacity="0.33"/>
<circle cx="1450" cy="324" r="5.2" fill="#7fd6a0" opacity="0.34"/>
<circle cx="935" cy="319" r="1.9" fill="#7fd6a0" opacity="0.15"/>
<circle cx="80" cy="919" r="4.4" fill="#7fd6a0" opacity="0.24"/>
<circle cx="1378" cy="431" r="2.3" fill="#7fd6a0" opacity="0.27"/>
<circle cx="350" cy="491" r="5.6" fill="#7fd6a0" opacity="0.34"/>
<circle cx="532" cy="439" r="3.7" fill="#7fd6a0" opacity="0.15"/>
<circle cx="31" cy="214" r="3.5" fill="#7fd6a0" opacity="0.19"/>
<circle cx="1402" cy="225" r="2.2" fill="#7fd6a0" opacity="0.06"/>
<circle cx="434" cy="219" r="4.1" fill="#7fd6a0" opacity="0.15"/>
<circle cx="1398" cy="362" r="3.6" fill="#7fd6a0" opacity="0.18"/>
<circle cx="1110" cy="326" r="1.7" fill="#7fd6a0" opacity="0.28"/>
<circle cx="339" cy="705" r="4.6" fill="#7fd6a0" opacity="0.22"/>
<circle cx="972" cy="374" r="5.4" fill="#7fd6a0" opacity="0.12"/>
<circle cx="1397" cy="407" r="4.4" fill="#7fd6a0" opacity="0.20"/>
<circle cx="434" cy="297" r="3.8" fill="#7fd6a0" opacity="0.35"/>
<circle cx="698" cy="794" r="5.5" fill="#7fd6a0" opacity="0.13"/>
<circle cx="816" cy="229" r="5.6" fill="#7fd6a0" opacity="0.28"/>
<circle cx="298" cy="918" r="4.8" fill="#7fd6a0" opacity="0.22"/>
<circle cx="882" cy="596" r="5.1" fill="#7fd6a0" opacity="0.17"/>
<circle cx="536" cy="431" r="2.0" fill="#7fd6a0" opacity="0.32"/>
<circle cx="392" cy="244" r="3.3" fill="#7fd6a0" opacity="0.13"/>
<circle cx="1298" cy="250" r="5.0" fill="#7fd6a0" opacity="0.24"/>
<circle cx="67" cy="381" r="5.1" fill="#7fd6a0" opacity="0.23"/>
<circle cx="717" cy="716" r="5.8" fill="#7fd6a0" opacity="0.34"/>
<circle cx="523" cy="312" r="4.7" fill="#7fd6a0" opacity="0.21"/>
<circle cx="1349" cy="908" r="5.3" fill="#7fd6a0" opacity="0.06"/>
<circle cx="460" cy="893" r="5.6" fill="#7fd6a0" opacity="0.08"/>
<circle cx="6" cy="955" r="1.9" fill="#7fd6a0" opacity="0.26"/>
<circle cx="1277" cy="736" r="3.3" fill="#7fd6a0" opacity="0.19"/>
<circle cx="288" cy="160" r="1.6" fill="#7fd6a0" opacity="0.08"/>
<circle cx="1402" cy="211" r="5.5" fill="#7fd6a0" opacity="0.14"/>
<circle cx="1002" cy="710" r="2.4" fill="#7fd6a0" opacity="0.06"/>
<circle cx="290" cy="774" r="3.5" fill="#7fd6a0" opacity="0.11"/>
<circle cx="546" cy="541" r="5.9" fill="#7fd6a0" opacity="0.20"/>
<circle cx="1101" cy="137" r="5.5" fill="#7fd6a0" opacity="0.20"/>
<circle cx="486" cy="888" r="2.2" fill="#7fd6a0" opacity="0.07"/>
<circle cx="1319" cy="908" r="2.7" fill="#7fd6a0" opacity="0.14"/>
<circle cx="1015" cy="365" r="3.8" fill="#7fd6a0" opacity="0.10"/>
<circle cx="1335" cy="332" r="3.8" fill="#7fd6a0" opacity="0.30"/>
<circle cx="1285" cy="697" r="2.6" fill="#7fd6a0" opacity="0.08"/>
<circle cx="856" cy="616" r="4.8" fill="#7fd6a0" opacity="0.20"/>
<circle cx="877" cy="651" r="5.4" fill="#7fd6a0" opacity="0.31"/>
<circle cx="92" cy="914" r="3.1" fill="#7fd6a0" opacity="0.09"/>
<circle cx="94" cy="341" r="3.4" fill="#7fd6a0" opacity="0.17"/>
<circle cx="890" cy="861" r="5.4" fill="#7fd6a0" opacity="0.10"/>
<circle cx="88" cy="742" r="4.7" fill="#7fd6a0" opacity="0.27"/>
<circle cx="431" cy="464" r="5.5" fill="#7fd6a0" opacity="0.18"/>
<circle cx="561" cy="629" r="5.1" fill="#7fd6a0" opacity="0.14"/>
<circle cx="680" cy="857" r="4.5" fill="#7fd6a0" opacity="0.08"/>
<circle cx="920" cy="546" r="3.4" fill="#7fd6a0" opacity="0.22"/>
<circle cx="156" cy="736" r="1.6" fill="#7fd6a0" opacity="0.12"/>
<circle cx="747" cy="246" r="3.6" fill="#7fd6a0" opacity="0.07"/>
<circle cx="836" cy="989" r="1.7" fill="#7fd6a0" opacity="0.34"/>
<circle cx="1014" cy="777" r="2.1" fill="#7fd6a0" opacity="0.11"/>
<circle cx="825" cy="783" r="1.9" fill="#7fd6a0" opacity="0.06"/>
<circle cx="1396" cy="790" r="5.1" fill="#7fd6a0" opacity="0.05"/>
<circle cx="175" cy="647" r="5.5" fill="#7fd6a0" opacity="0.12"/>
<circle cx="1117" cy="751" r="4.2" fill="#7fd6a0" opacity="0.23"/>
<circle cx="699" cy="607" r="4.2" fill="#7fd6a0" opacity="0.15"/>
<circle cx="933" cy="891" r="2.2" fill="#7fd6a0" opacity="0.10"/>
<circle cx="1319" cy="815" r="2.5" fill="#7fd6a0" opacity="0.11"/>
<circle cx="1358" cy="309" r="1.7" fill="#7fd6a0" opacity="0.09"/>
<circle cx="266" cy="993" r="5.8" fill="#7fd6a0" opacity="0.18"/>
<circle cx="866" cy="981" r="2.0" fill="#7fd6a0" opacity="0.14"/>
<circle cx="522" cy="888" r="5.2" fill="#7fd6a0" opacity="0.31"/>
<circle cx="1268" cy="181" r="3.4" fill="#7fd6a0" opacity="0.16"/>
<circle cx="10" cy="980" r="2.7" fill="#7fd6a0" opacity="0.10"/>
<circle cx="752" cy="152" r="4.0" fill="#7fd6a0" opacity="0.20"/>
<circle cx="1343" cy="438" r="1.6" fill="#7fd6a0" opacity="0.20"/>
<circle cx="1295" cy="698" r="4.8" fill="#7fd6a0" opacity="0.19"/>
<circle cx="474" cy="493" r="4.2" fill="#7fd6a0" opacity="0.23"/>
<circle cx="449" cy="756" r="3.6" fill="#7fd6a0" opacity="0.31"/>
<circle cx="1317" cy="536" r="2.9" fill="#7fd6a0" opacity="0.22"/>
<circle cx="561" cy="655" r="3.1" fill="#7fd6a0" opacity="0.11"/>
<circle cx="121" cy="294" r="1.8" fill="#7fd6a0" opacity="0.16"/>
<circle cx="1075" cy="265" r="5.8" fill="#7fd6a0" opacity="0.20"/>
<circle cx="1176" cy="983" r="5.1" fill="#7fd6a0" opacity="0.24"/>
<circle cx="253" cy="587" r="4.1" fill="#7fd6a0" opacity="0.27"/>
<circle cx="1417" cy="395" r="3.5" fill="#7fd6a0" opacity="0.33"/>
<circle cx="1121" cy="228" r="2.6" fill="#7fd6a0" opacity="0.23"/>
<circle cx="1455" cy="672" r="3.8" fill="#7fd6a0" opacity="0.32"/>
<circle cx="1281" cy="934" r="4.1" fill="#7fd6a0" opacity="0.25"/>
<circle cx="841" cy="422" r="3.5" fill="#7fd6a0" opacity="0.08"/>
<circle cx="1166" cy="778" r="2.8" fill="#7fd6a0" opacity="0.05"/>
<circle cx="922" cy="338" r="2.2" fill="#7fd6a0" opacity="0.07"/>
<circle cx="481" cy="179" r="3.1" fill="#7fd6a0" opacity="0.30"/>
<circle cx="1209" cy="870" r="5.1" fill="#7fd6a0" opacity="0.18"/>
<circle cx="602" cy="927" r="3.5" fill="#7fd6a0" opacity="0.23"/>
<circle cx="67" cy="619" r="1.7" fill="#7fd6a0" opacity="0.26"/>
<circle cx="869" cy="586" r="4.1" fill="#7fd6a0" opacity="0.16"/>
<circle cx="574" cy="226" r="4.2" fill="#7fd6a0" opacity="0.33"/>
<circle cx="660" cy="773" r="3.9" fill="#7fd6a0" opacity="0.20"/>
<circle cx="1262" cy="478" r="2.9" fill="#7fd6a0" opacity="0.34"/>
<circle cx="519" cy="467" r="3.2" fill="#7fd6a0" opacity="0.17"/>
<circle cx="447" cy="670" r="5.5" fill="#7fd6a0" opacity="0.31"/>
<circle cx="1482" cy="983" r="4.8" fill="#7fd6a0" opacity="0.14"/>
<circle cx="1036" cy="588" r="3.9" fill="#7fd6a0" opacity="0.10"/>
<circle cx="656" cy="457" r="3.4" fill="#7fd6a0" opacity="0.26"/>
<circle cx="577" cy="394" r="3.2" fill="#7fd6a0" opacity="0.25"/>
<circle cx="2" cy="289" r="5.0" fill="#7fd6a0" opacity="0.10"/>
<circle cx="578" cy="582" r="3.9" fill="#7fd6a0" opacity="0.25"/>
<circle cx="702" cy="537" r="2.9" fill="#7fd6a0" opacity="0.13"/>
<circle cx="19" cy="186" r="2.3" fill="#7fd6a0" opacity="0.05"/>
<circle cx="1334" cy="755" r="4.2" fill="#7fd6a0" opacity="0.20"/>
<circle cx="2" cy="268" r="4.5" fill="#7fd6a0" opacity="0.28"/>
<circle cx="729" cy="843" r="1.8" fill="#7fd6a0" opacity="0.21"/>
<circle cx="265" cy="765" r="4.2" fill="#7fd6a0" opacity="0.18"/>
<circle cx="188" cy="209" r="3.2" fill="#7fd6a0" opacity="0.15"/>
<circle cx="329" cy="374" r="5.4" fill="#7fd6a0" opacity="0.27"/>
<circle cx="1412" cy="771" r="1.7" fill="#7fd6a0" opacity="0.10"/>
<circle cx="351" cy="423" r="5.1" fill="#7fd6a0" opacity="0.18"/>
<circle cx="1461" cy="701" r="4.9" fill="#7fd6a0" opacity="0.28"/>
<circle cx="272" cy="861" r="5.8" fill="#7fd6a0" opacity="0.17"/>
<circle cx="1148" cy="980" r="5.6" fill="#7fd6a0" opacity="0.21"/>
<circle cx="688" cy="766" r="1.9" fill="#7fd6a0" opacity="0.12"/>
<circle cx="291" cy="506" r="1.6" fill="#7fd6a0" opacity="0.31"/>
<circle cx="1332" cy="126" r="2.9" fill="#7fd6a0" opacity="0.13"/>
<circle cx="968" cy="421" r="2.9" fill="#7fd6a0" opacity="0.16"/>
<circle cx="1160" cy="143" r="3.0" fill="#7fd6a0" opacity="0.11"/>
<circle cx="1057" cy="917" r="3.2" fill="#7fd6a0" opacity="0.18"/>
<circle cx="1179" cy="723" r="5.3" fill="#7fd6a0" opacity="0.15"/>
<circle cx="151" cy="638" r="2.5" fill="#7fd6a0" opacity="0.32"/>
<circle cx="1488" cy="323" r="3.6" fill="#7fd6a0" opacity="0.05"/>
<circle cx="1366" cy="763" r="3.5" fill="#7fd6a0" opacity="0.25"/>
<circle cx="877" cy="599" r="5.3" fill="#7fd6a0" opacity="0.29"/>
<circle cx="696" cy="265" r="1.8" fill="#7fd6a0" opacity="0.18"/>
<circle cx="937" cy="435" r="3.0" fill="#7fd6a0" opacity="0.27"/>
<circle cx="496" cy="366" r="5.9" fill="#7fd6a0" opacity="0.08"/>
<circle cx="432" cy="670" r="2.7" fill="#7fd6a0" opacity="0.32"/>
<circle cx="416" cy="323" r="3.4" fill="#7fd6a0" opacity="0.18"/>
<circle cx="187" cy="612" r="2.7" fill="#7fd6a0" opacity="0.26"/>
<circle cx="1460" cy="267" r="3.0" fill="#7fd6a0" opacity="0.30"/>
<circle cx="436" cy="550" r="2.6" fill="#7fd6a0" opacity="0.16"/>
<circle cx="1474" cy="472" r="2.3" fill="#7fd6a0" opacity="0.20"/>
<circle cx="125" cy="681" r="5.0" fill="#7fd6a0" opacity="0.06"/>
<circle cx="447" cy="203" r="1.8" fill="#7fd6a0" opacity="0.07"/>
<circle cx="307" cy="314" r="2.8" fill="#7fd6a0" opacity="0.10"/>
<circle cx="524" cy="441" r="5.6" fill="#7fd6a0" opacity="0.34"/>
<circle cx="1472" cy="123" r="2.2" fill="#7fd6a0" opacity="0.23"/>
<circle cx="1399" cy="981" r="5.6" fill="#7fd6a0" opacity="0.09"/>
<circle cx="178" cy="356" r="5.3" fill="#7fd6a0" opacity="0.29"/>
<circle cx="953" cy="587" r="2.8" fill="#7fd6a0" opacity="0.08"/>
<circle cx="870" cy="629" r="4.8" fill="#7fd6a0" opacity="0.09"/>
<circle cx="1179" cy="144" r="4.5" fill="#7fd6a0" opacity="0.16"/>
<circle cx="991" cy="891" r="4.7" fill="#7fd6a0" opacity="0.27"/>
<circle cx="1068" cy="487" r="3.0" fill="#7fd6a0" opacity="0.27"/>
<circle cx="83" cy="850" r="2.1" fill="#7fd6a0" opacity="0.20"/>
<circle cx="1214" cy="390" r="5.1" fill="#7fd6a0" opacity="0.21"/>
<circle cx="199" cy="433" r="5.0" fill="#7fd6a0" opacity="0.06"/>
<circle cx="536" cy="861" r="1.9" fill="#7fd6a0" opacity="0.23"/>
<circle cx="135" cy="943" r="5.4" fill="#7fd6a0" opacity="0.15"/>
<circle cx="262" cy="631" r="5.3" fill="#7fd6a0" opacity="0.21"/>
<circle cx="332" cy="366" r="3.9" fill="#7fd6a0" opacity="0.12"/>
<circle cx="253" cy="458" r="2.1" fill="#7fd6a0" opacity="0.15"/>
<circle cx="562" cy="508" r="4.2" fill="#7fd6a0" opacity="0.05"/>
<circle cx="1040" cy="129" r="2.9" fill="#7fd6a0" opacity="0.26"/>
<circle cx="958" cy="288" r="2.4" fill="#7fd6a0" opacity="0.29"/>
<circle cx="892" cy="233" r="3.5" fill="#7fd6a0" opacity="0.15"/>
<circle cx="1143" cy="821" r="2.9" fill="#7fd6a0" opacity="0.18"/>
<circle cx="1" cy="809" r="2.5" fill="#7fd6a0" opacity="0.15"/>
<circle cx="195" cy="413" r="4.8" fill="#7fd6a0" opacity="0.28"/>
<circle cx="616" cy="280" r="6.0" fill="#7fd6a0" opacity="0.12"/>
<circle cx="208" cy="816" r="3.1" fill="#7fd6a0" opacity="0.07"/>
<rect x="445" y="300" width="35" height="1000" fill="#08201b" opacity="0.72"/>
<rect x="1352" y="240" width="39" height="1000" fill="#08201b" opacity="0.61"/>
<rect x="36" y="247" width="22" height="1000" fill="#08201b" opacity="0.42"/>
<rect x="536" y="203" width="15" height="1000" fill="#08201b" opacity="0.77"/>
<rect x="574" y="134" width="36" height="1000" fill="#08201b" opacity="0.32"/>
<rect x="148" y="223" width="22" height="1000" fill="#08201b" opacity="0.49"/>
<rect x="1027" y="173" width="14" height="1000" fill="#08201b" opacity="0.49"/>
<rect x="1317" y="208" width="14" height="1000" fill="#08201b" opacity="0.46"/>
<rect x="815" y="143" width="26" height="1000" fill="#08201b" opacity="0.38"/>
<rect x="1062" y="231" width="18" height="1000" fill="#08201b" opacity="0.45"/>
<rect x="1200" y="244" width="19" height="1000" fill="#08201b" opacity="0.53"/>
<rect x="660" y="148" width="32" height="1000" fill="#08201b" opacity="0.79"/>
<rect x="1359" y="227" width="27" height="1000" fill="#08201b" opacity="0.79"/>
<rect x="365" y="217" width="29" height="1000" fill="#08201b" opacity="0.46"/>
<rect x="932" y="295" width="21" height="1000" fill="#08201b" opacity="0.65"/>
<rect x="225" y="280" width="33" height="1000" fill="#08201b" opacity="0.63"/>
<rect x="466" y="133" width="32" height="1000" fill="#08201b" opacity="0.48"/>
<rect x="474" y="144" width="39" height="1000" fill="#08201b" opacity="0.42"/>
<rect x="417" y="267" width="40" height="1000" fill="#08201b" opacity="0.70"/>
<rect x="574" y="186" width="37" height="1000" fill="#08201b" opacity="0.44"/>
<rect x="131" y="133" width="23" height="1000" fill="#08201b" opacity="0.74"/>
<rect x="983" y="195" width="33" height="1000" fill="#08201b" opacity="0.48"/>
<rect x="331" y="284" width="36" height="1000" fill="#08201b" opacity="0.39"/>
<rect x="1422" y="283" width="23" height="1000" fill="#08201b" opacity="0.70"/>
<rect x="983" y="181" width="16" height="1000" fill="#08201b" opacity="0.65"/>
<rect x="912" y="258" width="36" height="1000" fill="#08201b" opacity="0.42"/>
</svg>